HIERARCHY
ROOT Hips
{
    OFFSET 0.000000 0.000000 0.000000
    CHANNELS 6 Xposition Yposition Zposition Zrotation Yrotation Xrotation
    JOINT Chest
    {
        OFFSET 0.000000 1.634758 -0.000000
        CHANNELS 3 Zrotation Yrotation Xrotation
        JOINT Chest2
        {
            OFFSET 0.000000 2.197341 0.000000
            CHANNELS 3 Zrotation Yrotation Xrotation
            JOINT Neck
            {
                OFFSET 0.000000 0.961544 0.000000
                CHANNELS 3 Zrotation Yrotation Xrotation
                JOINT Head
                {
                    OFFSET 0.000000 0.632542 -0.032565
                    CHANNELS 3 Zrotation Yrotation Xrotation
                    End Site
                    {
                        OFFSET -0.000001 0.439502 2.922845
                    }
                }
            }
            JOINT LeftCollar
            {
                OFFSET 0.167536 0.778237 -0.168280
                CHANNELS 3 Zrotation Yrotation Xrotation
                JOINT LeftShoulder
                {
                    OFFSET 0.831514 -0.002900 0.006458
                    CHANNELS 3 Zrotation Yrotation Xrotation
                    JOINT LeftElbow
                    {
                        OFFSET 2.272872 -0.026639 0.059314
                        CHANNELS 3 Zrotation Yrotation Xrotation
                        JOINT LeftWrist
                        {
                            OFFSET 2.081982 -0.024402 0.054333
                            CHANNELS 3 Zrotation Yrotation Xrotation
                            JOINT LeftHandThumb1
                            {
                                OFFSET 0.218903 -0.128645 0.283837
                                CHANNELS 3 Zrotation Yrotation Xrotation
                                JOINT LeftHandThumb2
                                {
                                    OFFSET 0.137157 -0.025101 0.077902
                                    CHANNELS 3 Zrotation Yrotation Xrotation
                                    JOINT LeftHandThumb3
                                    {
                                        OFFSET 0.162713 -0.083197 -0.011921
                                        CHANNELS 3 Zrotation Yrotation Xrotation
                                        End Site
                                        {
                                            OFFSET 0.192617 -0.097248 -0.158990
                                        }
                                    }
                                }
                            }
                            JOINT LeftHandFore1
                            {
                                OFFSET 0.767340 -0.016076 0.196678
                                CHANNELS 3 Zrotation Yrotation Xrotation
                                JOINT LeftHandFore2
                                {
                                    OFFSET 0.215899 0.017009 0.009664
                                    CHANNELS 3 Zrotation Yrotation Xrotation
                                    JOINT LeftHandFore3
                                    {
                                        OFFSET 0.115653 -0.057718 0.007473
                                        CHANNELS 3 Zrotation Yrotation Xrotation
                                        End Site
                                        {
                                            OFFSET 0.149115 -0.122771 0.007670
                                        }
                                    }
                                }
                            }
                            JOINT LeftHandMiddle1
                            {
                                OFFSET 0.709887 -0.008320 0.018526
                                CHANNELS 3 Zrotation Yrotation Xrotation
                                JOINT LeftHandMiddle2
                                {
                                    OFFSET 0.181252 -0.164691 0.009387
                                    CHANNELS 3 Zrotation Yrotation Xrotation
                                    JOINT LeftHandMiddle3
                                    {
                                        OFFSET -0.047982 -0.138044 0.004965
                                        CHANNELS 3 Zrotation Yrotation Xrotation
                                        End Site
                                        {
                                            OFFSET -0.190042 0.139654 -0.003357
                                        }
                                    }
                                }
                            }
                            JOINT LeftHandRing1
                            {
                                OFFSET 0.743817 -0.005823 -0.153668
                                CHANNELS 3 Zrotation Yrotation Xrotation
                                JOINT LeftHandRing2
                                {
                                    OFFSET 0.084881 -0.342196 -0.020752
                                    CHANNELS 3 Zrotation Yrotation Xrotation
                                    JOINT LeftHandRing3
                                    {
                                        OFFSET -0.091895 -0.100634 -0.005797
                                        CHANNELS 3 Zrotation Yrotation Xrotation
                                        End Site
                                        {
                                            OFFSET -0.057067 0.105650 0.001107
                                        }
                                    }
                                }
                            }
                            JOINT LeftHandLittle1
                            {
                                OFFSET 0.689408 -0.053302 -0.308304
                                CHANNELS 3 Zrotation Yrotation Xrotation
                                JOINT LeftHandLittle2
                                {
                                    OFFSET 0.059175 -0.182964 -0.032809
                                    CHANNELS 3 Zrotation Yrotation Xrotation
                                    JOINT LeftHandLittle3
                                    {
                                        OFFSET -0.071709 -0.091981 -0.029894
                                        CHANNELS 3 Zrotation Yrotation Xrotation
                                        End Site
                                        {
                                            OFFSET -0.158309 0.105468 -0.010175
                                        }
                                    }
                                }
                            }
                        }
                    }
                }
            }
            JOINT RightCollar
            {
                OFFSET -0.167536 0.778237 -0.168280
                CHANNELS 3 Zrotation Yrotation Xrotation
                JOINT RightShoulder
                {
                    OFFSET -0.831514 -0.002900 0.006457
                    CHANNELS 3 Zrotation Yrotation Xrotation
                    JOINT RightElbow
                    {
                        OFFSET -2.272872 -0.026639 0.059313
                        CHANNELS 3 Zrotation Yrotation Xrotation
                        JOINT RightWrist
                        {
                            OFFSET -2.081982 -0.024402 0.054331
                            CHANNELS 3 Zrotation Yrotation Xrotation
                            JOINT RightHandThumb1
                            {
                                OFFSET -0.218911 -0.128571 0.283837
                                CHANNELS 3 Zrotation Yrotation Xrotation
                                JOINT RightHandThumb2
                                {
                                    OFFSET -0.137157 -0.025101 0.077902
                                    CHANNELS 3 Zrotation Yrotation Xrotation
                                    JOINT RightHandThumb3
                                    {
                                        OFFSET -0.167364 -0.035219 0.065485
                                        CHANNELS 3 Zrotation Yrotation Xrotation
                                        End Site
                                        {
                                            OFFSET -0.226673 -0.101413 0.100853
                                        }
                                    }
                                }
                            }
                            JOINT RightHandFore1
                            {
                                OFFSET -0.767344 -0.015991 0.196679
                                CHANNELS 3 Zrotation Yrotation Xrotation
                                JOINT RightHandFore2
                                {
                                    OFFSET -0.215520 0.021369 0.009542
                                    CHANNELS 3 Zrotation Yrotation Xrotation
                                    JOINT RightHandFore3
                                    {
                                        OFFSET -0.121492 -0.044627 0.003187
                                        CHANNELS 3 Zrotation Yrotation Xrotation
                                        End Site
                                        {
                                            OFFSET -0.182746 -0.062350 0.009114
                                        }
                                    }
                                }
                            }
                            JOINT RightHandMiddle1
                            {
                                OFFSET -0.709887 -0.008302 0.018525
                                CHANNELS 3 Zrotation Yrotation Xrotation
                                JOINT RightHandMiddle2
                                {
                                    OFFSET -0.241129 -0.043240 0.006995
                                    CHANNELS 3 Zrotation Yrotation Xrotation
                                    JOINT RightHandMiddle3
                                    {
                                        OFFSET -0.132007 -0.062846 0.002969
                                        CHANNELS 3 Zrotation Yrotation Xrotation
                                        End Site
                                        {
                                            OFFSET -0.205287 -0.116076 0.003719
                                        }
                                    }
                                }
                            }
                            JOINT RightHandRing1
                            {
                                OFFSET -0.743819 -0.005785 -0.153669
                                CHANNELS 3 Zrotation Yrotation Xrotation
                                JOINT RightHandRing2
                                {
                                    OFFSET -0.334809 -0.112046 -0.009032
                                    CHANNELS 3 Zrotation Yrotation Xrotation
                                    JOINT RightHandRing3
                                    {
                                        OFFSET -0.086211 -0.105192 -0.010360
                                        CHANNELS 3 Zrotation Yrotation Xrotation
                                        End Site
                                        {
                                            OFFSET -0.063567 -0.101479 -0.009032
                                        }
                                    }
                                }
                            }
                            JOINT RightHandLittle1
                            {
                                OFFSET -0.689403 -0.053298 -0.308303
                                CHANNELS 3 Zrotation Yrotation Xrotation
                                JOINT RightHandLittle2
                                {
                                    OFFSET -0.178863 -0.075468 -0.019183
                                    CHANNELS 3 Zrotation Yrotation Xrotation
                                    JOINT RightHandLittle3
                                    {
                                        OFFSET -0.077208 -0.091605 -0.011957
                                        CHANNELS 3 Zrotation Yrotation Xrotation
                                        End Site
                                        {
                                            OFFSET -0.112774 -0.151275 -0.026199
                                        }
                                    }
                                }
                            }
                        }
                    }
                }
            }
        }
    }
    JOINT LeftHip
    {
        OFFSET 0.685143 0.673822 -0.044491
        CHANNELS 3 Zrotation Yrotation Xrotation
        JOINT LeftKnee
        {
            OFFSET 0.085364 -3.750208 0.017676
            CHANNELS 3 Zrotation Yrotation Xrotation
            JOINT LeftAnkle
            {
                OFFSET 0.094583 -4.155206 0.019585
                CHANNELS 3 Zrotation Yrotation Xrotation
                JOINT LeftToe
                {
                    OFFSET -0.000000 -0.395925 0.621478
                    CHANNELS 3 Zrotation Yrotation Xrotation
                    End Site
                    {
                        OFFSET -0.000000 -0.077878 0.321152
                    }
                }
            }
        }
    }
    JOINT RightHip
    {
        OFFSET -0.685143 0.673822 -0.044492
        CHANNELS 3 Zrotation Yrotation Xrotation
        JOINT RightKnee
        {
            OFFSET -0.085364 -3.750208 0.017677
            CHANNELS 3 Zrotation Yrotation Xrotation
            JOINT RightAnkle
            {
                OFFSET -0.094583 -4.155206 0.019585
                CHANNELS 3 Zrotation Yrotation Xrotation
                JOINT RightToe
                {
                    OFFSET -0.000000 -0.395925 0.621478
                    CHANNELS 3 Zrotation Yrotation Xrotation
                    End Site
                    {
                        OFFSET -0.000000 -0.077878 0.321152
                    }
                }
            }
        }
    }
}
MOTION
Frames: 4
Frame Time: 0.033333
3.076056 8.433496 -9.986090 21.749964 6.621698 3.786158 -9.998572 -8.613308 -5.964943 -4.301964 1.651230 -3.723076 -25.740191 16.123217 2.346838 -2.180469 36.465363 4.382485 -5.344769 -7.484450 0.160890 -36.815788 14.959469 5.673571 177.089798 -72.638458 -177.867874 7.766987 -30.722790 0.214349 0.000008 0.000009 0.000011 5.973287 -15.626431 -4.893957 21.894905 -34.403439 -29.633951 -13.692060 -2.635589 0.491903 9.734349 0.303728 -0.128655 20.023384 0.874998 -0.537289 27.957375 -3.455469 -5.238370 48.106380 1.533327 0.073159 106.000862 2.499493 1.413749 68.123283 6.224727 1.196725 23.445707 -1.191565 -1.147600 105.987030 -0.813354 -2.973848 54.009308 13.016804 -7.386494 33.004242 -1.759667 -4.079529 102.315933 -0.127605 -15.435994 1.247818 5.544322 -0.068532 63.396416 25.476952 -53.421352 -172.301514 84.533577 -173.008469 -66.310928 -12.020372 -7.253513 0.000000 -0.000006 -0.000009 8.113989 -7.208878 6.996122 -18.522581 9.875837 -9.540418 14.838968 2.658511 0.537039 -4.569200 0.155145 -0.335558 -5.716918 0.232098 -0.313665 4.112605 6.412952 -1.845862 3.434111 -0.069136 0.140256 -2.861709 0.048792 -0.124865 -10.133100 -4.919063 -0.396967 0.572261 -0.025664 -0.012720 -3.994841 0.303293 0.177017 -4.221641 -4.326671 -7.888043 -5.023913 0.730617 0.872900 -20.808435 3.031264 2.223755 -10.661162 -12.444549 -2.726134 0.030428 0.280053 12.399988 -13.779270 -21.079456 -2.626858 -0.000001 -0.000002 0.000002 -34.493549 -14.435143 -0.068201 -0.034254 -0.296974 13.162251 6.201093 13.772886 -15.177672 -0.035471 -0.182475 -2.630871
3.228708 8.461661 -10.003134 24.285376 6.386271 4.383779 -8.507839 -7.927025 -6.715092 -2.864058 1.444590 -3.662971 -25.358023 16.678713 3.259418 -2.225052 37.021008 6.310419 -5.663136 -6.764852 0.142968 -38.565407 17.857279 5.566661 177.130432 -72.307007 -177.910522 5.429759 -31.738384 1.004634 0.000006 0.000014 0.000017 5.973283 -15.626430 -4.893954 21.894909 -34.403442 -29.633947 -13.692060 -2.635593 0.491896 9.734347 0.303730 -0.128655 20.023388 0.874998 -0.537288 27.957371 -3.455473 -5.238382 48.106373 1.533323 0.073162 106.000854 2.499497 1.413751 68.123268 6.224721 1.196718 23.445698 -1.191564 -1.147599 105.987030 -0.813349 -2.973850 54.009308 13.016798 -7.386499 33.004238 -1.759663 -4.079535 102.315933 -0.127605 -15.435990 0.964976 5.920787 -0.054050 62.223911 25.983381 -52.770523 -172.909576 84.016251 -173.619827 -66.593437 -12.239252 -7.380136 0.000000 -0.000002 0.000003 8.113989 -7.208879 6.996128 -18.522583 9.875836 -9.540421 14.838968 2.658512 0.537051 -4.569199 0.155146 -0.335555 -5.716916 0.232099 -0.313674 4.112607 6.412954 -1.845852 3.434111 -0.069135 0.140253 -2.861707 0.048788 -0.124866 -10.133095 -4.919057 -0.396950 0.572260 -0.025665 -0.012730 -3.994838 0.303291 0.177012 -4.221638 -4.326667 -7.888033 -5.023915 0.730618 0.872899 -20.808432 3.031265 2.223762 -13.275970 -20.754560 -4.211131 0.044715 0.338554 15.045729 -14.152523 -21.012030 -3.260196 0.000000 0.000003 -0.000016 -38.236099 -16.732567 1.243196 -0.020519 -0.230461 10.178120 7.354941 15.608291 -13.116114 -0.036850 -0.189294 -2.615192
3.346775 8.484708 -10.016914 26.181713 6.195872 4.867257 -7.088460 -7.283676 -7.331985 -1.576049 1.250317 -3.578548 -25.010015 17.110279 4.018398 -2.252245 37.356037 7.924370 -5.948574 -6.153220 0.123160 -39.932175 20.123995 5.410809 177.099976 -72.556587 -177.878555 5.005201 -32.571014 0.778125 0.000007 0.000024 0.000018 5.973283 -15.626430 -4.893956 21.894920 -34.403446 -29.633944 -13.692062 -2.635574 0.491894 9.734351 0.303733 -0.128652 20.023390 0.874995 -0.537289 27.957371 -3.455455 -5.238369 48.106373 1.533322 0.073160 106.000854 2.499490 1.413752 68.123283 6.224730 1.196737 23.445707 -1.191568 -1.147602 105.987030 -0.813356 -2.973847 54.009308 13.016808 -7.386486 33.004246 -1.759663 -4.079530 102.315933 -0.127609 -15.435988 0.756419 6.296933 -0.044761 61.045593 26.526484 -52.434166 -172.647644 84.250832 -173.356293 -66.819031 -12.409072 -7.478911 -0.000007 0.000008 0.000005 8.113985 -7.208878 6.996129 -18.522581 9.875840 -9.540416 14.838960 2.658526 0.537046 -4.569201 0.155144 -0.335558 -5.716916 0.232098 -0.313669 4.112591 6.412966 -1.845848 3.434115 -0.069136 0.140250 -2.861712 0.048789 -0.124863 -10.133106 -4.919051 -0.396960 0.572263 -0.025664 -0.012725 -3.994839 0.303286 0.177009 -4.221651 -4.326660 -7.888042 -5.023912 0.730620 0.872902 -20.808434 3.031260 2.223754 -15.146802 -27.611147 -5.848734 0.064197 0.404110 18.050680 -13.536726 -21.558430 -4.554518 -0.000002 -0.000007 -0.000002 -41.065418 -18.606771 3.176965 -0.007339 -0.138196 6.082579 8.551764 16.870169 -10.569581 -0.038396 -0.197141 -2.609665
3.423041 8.500003 -10.026132 27.370052 6.068413 5.190802 -5.861603 -6.762953 -7.771631 -0.580077 1.092820 -3.473997 -24.722485 17.401829 4.561495 -2.263291 37.491245 9.088798 -6.192458 -5.712404 0.105807 -40.849751 21.555378 5.243734 176.991043 -73.393761 -177.764557 4.536000 -33.312325 0.584165 0.000001 0.000012 0.000012 5.973291 -15.626430 -4.893956 21.894905 -34.403439 -29.633951 -13.692059 -2.635588 0.491900 9.734352 0.303728 -0.128650 20.023388 0.875000 -0.537291 27.957375 -3.455472 -5.238376 48.106373 1.533323 0.073159 106.000862 2.499495 1.413746 68.123283 6.224727 1.196719 23.445700 -1.191571 -1.147600 105.987022 -0.813356 -2.973850 54.009304 13.016800 -7.386497 33.004238 -1.759663 -4.079529 102.315933 -0.127602 -15.435997 0.658803 6.773579 -0.040779 59.876774 27.553726 -52.197086 -169.237457 86.186195 -169.934753 -66.968384 -12.519145 -7.543218 0.000010 0.000003 0.000002 8.113991 -7.208878 6.996124 -18.522583 9.875837 -9.540415 14.838976 2.658526 0.537034 -4.569198 0.155145 -0.335557 -5.716919 0.232099 -0.313665 4.112611 6.412963 -1.845862 3.434113 -0.069133 0.140253 -2.861708 0.048786 -0.124868 -10.133093 -4.919052 -0.396976 0.572262 -0.025665 -0.012726 -3.994837 0.303287 0.177007 -4.221642 -4.326660 -7.888053 -5.023910 0.730619 0.872902 -20.808435 3.031262 2.223756 -16.269394 -32.268719 -7.096989 0.081453 0.453651 20.355608 -12.581697 -22.130318 -5.747689 -0.000001 -0.000000 -0.000002 -42.866749 -19.898558 6.221473 -0.000001 -0.000001 0.000000 9.835933 17.352457 -7.200964 -0.038290 -0.193935 -2.462785
